<svg width="169" height="35" viewBox="0 0 169 35" fill="none" xmlns="http://www.w3.org/2000/svg">
<path d="M54.2119 14.6579V2.34524H57.466V6.91853H62.2152V2.34524H65.4692V14.6579H62.2152V9.90876H57.466V14.6579H54.2119Z" fill="white"/>
<path d="M67.3958 3.04883C67.3958 2.62668 67.5542 2.27488 67.8708 1.99345C68.1874 1.70029 68.5861 1.55371 69.0669 1.55371C69.5476 1.55371 69.9463 1.70029 70.2629 1.99345C70.5796 2.27488 70.7379 2.62668 70.7379 3.04883C70.7379 3.45925 70.5796 3.81104 70.2629 4.1042C69.9463 4.39736 69.5476 4.54394 69.0669 4.54394C68.5861 4.54394 68.1874 4.39736 67.8708 4.1042C67.5542 3.81104 67.3958 3.45925 67.3958 3.04883ZM67.5717 14.6579V5.51137H70.562V14.6579H67.5717Z" fill="white"/>
<path d="M73.2404 13.2684C72.4547 12.4006 72.0619 11.2807 72.0619 9.90876C72.0619 8.53677 72.4547 7.4169 73.2404 6.54915C74.0261 5.6814 74.9818 5.24752 76.1075 5.24752C76.9166 5.24752 77.6143 5.48205 78.2007 5.9511C78.4704 6.16218 78.6814 6.39671 78.8339 6.65469H79.0098V5.51137H82V18H73.2932V15.6254H79.0098V13.2508H78.8339C78.6697 13.5088 78.4586 13.7316 78.2007 13.9192C77.6261 14.3531 76.9283 14.57 76.1075 14.57C74.9818 14.57 74.0261 14.1361 73.2404 13.2684ZM75.6678 8.36088C75.316 8.73612 75.1401 9.25208 75.1401 9.90876C75.1401 10.5654 75.316 11.0814 75.6678 11.4566C76.0196 11.8319 76.4886 12.0195 77.0749 12.0195C77.6612 12.0195 78.1303 11.8319 78.4821 11.4566C78.8339 11.0814 79.0098 10.5654 79.0098 9.90876C79.0098 9.25208 78.8339 8.73612 78.4821 8.36088C78.1303 7.98563 77.6612 7.79801 77.0749 7.79801C76.4886 7.79801 76.0196 7.98563 75.6678 8.36088Z" fill="white"/>
<path d="M83.7507 14.6579V2.34524H86.7409V6.74264H86.9168C87.081 6.4612 87.2921 6.21495 87.5501 6.00387C88.1481 5.49964 88.8458 5.24752 89.6432 5.24752C90.7221 5.24752 91.5605 5.57586 92.1585 6.23254C92.7683 6.87749 93.0732 7.80974 93.0732 9.02928V14.6579H90.083V9.46902C90.083 8.94133 89.9422 8.53091 89.6608 8.23775C89.3794 7.94459 88.9924 7.79801 88.4999 7.79801C87.9957 7.79801 87.5735 7.98563 87.2335 8.36088C86.9051 8.7244 86.7409 9.21104 86.7409 9.82081V14.6579H83.7507Z" fill="white"/>
<path d="M99.6741 18V5.51137H102.664V6.74264H102.84C103.004 6.47293 103.227 6.22668 103.509 6.00387C104.154 5.49964 104.84 5.24752 105.567 5.24752C106.692 5.24752 107.648 5.69313 108.434 6.58433C109.219 7.46381 109.612 8.63058 109.612 10.0847C109.612 11.5387 109.219 12.7114 108.434 13.6026C107.648 14.482 106.692 14.9218 105.567 14.9218C104.828 14.9218 104.142 14.6755 103.509 14.183C103.227 13.9602 103.004 13.7081 102.84 13.4267H102.664V18H99.6741ZM103.192 8.39606C102.84 8.79475 102.664 9.35762 102.664 10.0847C102.664 10.8117 102.84 11.3746 103.192 11.7733C103.544 12.172 104.013 12.3713 104.599 12.3713C105.185 12.3713 105.655 12.172 106.006 11.7733C106.358 11.3746 106.534 10.8117 106.534 10.0847C106.534 9.35762 106.358 8.79475 106.006 8.39606C105.655 7.99736 105.185 7.79801 104.599 7.79801C104.013 7.79801 103.544 7.99736 103.192 8.39606Z" fill="white"/>
<path d="M111.838 13.6026C111.052 12.7114 110.659 11.5387 110.659 10.0847C110.659 8.63058 111.052 7.46381 111.838 6.58433C112.624 5.69313 113.579 5.24752 114.705 5.24752C115.432 5.24752 116.118 5.49964 116.763 6.00387C117.033 6.22668 117.255 6.47293 117.431 6.74264H117.607V5.51137H120.597V14.6579H117.607V13.4267H117.431C117.267 13.7081 117.044 13.9602 116.763 14.183C116.13 14.6755 115.444 14.9218 114.705 14.9218C113.579 14.9218 112.624 14.482 111.838 13.6026ZM114.265 8.39606C113.913 8.79475 113.738 9.35762 113.738 10.0847C113.738 10.8117 113.913 11.3746 114.265 11.7733C114.617 12.172 115.086 12.3713 115.672 12.3713C116.259 12.3713 116.728 12.172 117.08 11.7733C117.431 11.3746 117.607 10.8117 117.607 10.0847C117.607 9.35762 117.431 8.79475 117.08 8.39606C116.728 7.99736 116.259 7.79801 115.672 7.79801C115.086 7.79801 114.617 7.99736 114.265 8.39606Z" fill="white"/>
<path d="M121.82 11.6677H124.811C124.858 11.8436 124.957 12.0078 125.11 12.1602C125.426 12.4768 125.884 12.6351 126.482 12.6351C127.303 12.6351 127.713 12.4299 127.713 12.0195C127.713 11.8319 127.596 11.6853 127.361 11.5798C127.127 11.4625 126.775 11.3452 126.306 11.228C125.919 11.1342 125.667 11.0755 125.549 11.0521C125.432 11.0286 125.186 10.9641 124.811 10.8586C124.435 10.7413 124.166 10.6417 124.002 10.5596C123.849 10.4658 123.632 10.3368 123.351 10.1726C123.081 9.99671 122.882 9.82081 122.753 9.64492C122.635 9.45729 122.524 9.22863 122.419 8.95892C122.313 8.67749 122.26 8.37847 122.26 8.06185C122.26 7.28791 122.606 6.62537 123.298 6.07423C123.99 5.52309 124.963 5.24752 126.218 5.24752C127.789 5.24752 129.032 5.76348 129.947 6.7954C130.31 7.24101 130.562 7.7511 130.703 8.3257H127.801C127.731 8.13808 127.648 7.9915 127.555 7.88596C127.285 7.5928 126.898 7.44622 126.394 7.44622C125.69 7.44622 125.338 7.65143 125.338 8.06185C125.338 8.2612 125.456 8.41365 125.69 8.51918C125.925 8.62472 126.282 8.7244 126.763 8.81821C127.971 9.09964 128.786 9.34589 129.208 9.55697C130.263 10.0729 130.791 10.8645 130.791 11.9316C130.791 12.7759 130.416 13.4853 129.665 14.0599C128.927 14.6345 127.865 14.9218 126.482 14.9218C124.781 14.9218 123.486 14.3824 122.594 13.3035C122.196 12.8228 121.938 12.2775 121.82 11.6677Z" fill="white"/>
<path d="M131.577 11.6677H134.567C134.614 11.8436 134.714 12.0078 134.866 12.1602C135.183 12.4768 135.64 12.6351 136.238 12.6351C137.059 12.6351 137.47 12.4299 137.47 12.0195C137.47 11.8319 137.352 11.6853 137.118 11.5798C136.883 11.4625 136.532 11.3452 136.063 11.228C135.676 11.1342 135.423 11.0755 135.306 11.0521C135.189 11.0286 134.943 10.9641 134.567 10.8586C134.192 10.7413 133.922 10.6417 133.758 10.5596C133.606 10.4658 133.389 10.3368 133.107 10.1726C132.838 9.99671 132.638 9.82081 132.509 9.64492C132.392 9.45729 132.281 9.22863 132.175 8.95892C132.07 8.67749 132.017 8.37847 132.017 8.06185C132.017 7.28791 132.363 6.62537 133.055 6.07423C133.747 5.52309 134.72 5.24752 135.975 5.24752C137.546 5.24752 138.789 5.76348 139.704 6.7954C140.067 7.24101 140.319 7.7511 140.46 8.3257H137.558C137.487 8.13808 137.405 7.9915 137.311 7.88596C137.042 7.5928 136.655 7.44622 136.15 7.44622C135.447 7.44622 135.095 7.65143 135.095 8.06185C135.095 8.2612 135.212 8.41365 135.447 8.51918C135.681 8.62472 136.039 8.7244 136.52 8.81821C137.728 9.09964 138.543 9.34589 138.965 9.55697C140.02 10.0729 140.548 10.8645 140.548 11.9316C140.548 12.7759 140.173 13.4853 139.422 14.0599C138.683 14.6345 137.622 14.9218 136.238 14.9218C134.538 14.9218 133.242 14.3824 132.351 13.3035C131.952 12.8228 131.694 12.2775 131.577 11.6677Z" fill="white"/>
<path fill-rule="evenodd" clip-rule="evenodd" d="M32.5179 3.51792V14.0717H43.0717L32.5179 3.51792ZM29 0V17.5896H46.5896V0H29Z" fill="#FF6E30"/>
<path d="M1.53918 30.66C0.885846 30.06 0.55918 29.3233 0.55918 28.45C0.55918 27.5767 0.885846 26.8433 1.53918 26.25C2.19251 25.65 3.04918 25.35 4.10918 25.35V24.55H5.00918V25.35C6.06918 25.35 6.92585 25.65 7.57918 26.25C8.23251 26.8433 8.55918 27.5767 8.55918 28.45C8.55918 29.3233 8.23251 30.06 7.57918 30.66C6.92585 31.2533 6.06918 31.55 5.00918 31.55V32.35H4.10918V31.55C3.04918 31.55 2.19251 31.2533 1.53918 30.66ZM5.00918 26.15V30.75C5.81585 30.75 6.45918 30.5333 6.93918 30.1C7.41918 29.6667 7.65918 29.1167 7.65918 28.45C7.65918 27.7833 7.41918 27.2333 6.93918 26.8C6.45918 26.3667 5.81585 26.15 5.00918 26.15ZM2.17918 26.8C1.69918 27.2333 1.45918 27.7833 1.45918 28.45C1.45918 29.1167 1.69918 29.6667 2.17918 30.1C2.65918 30.5333 3.30251 30.75 4.10918 30.75V26.15C3.30251 26.15 2.65918 26.3667 2.17918 26.8ZM10.098 31.36C9.60467 30.8667 9.35801 30.2467 9.35801 29.5C9.35801 28.7533 9.60467 28.1333 10.098 27.64C10.5913 27.1467 11.2113 26.9 11.958 26.9C12.7047 26.9 13.3247 27.1467 13.818 27.64C14.3113 28.1333 14.558 28.7533 14.558 29.5C14.558 30.2467 14.3113 30.8667 13.818 31.36C13.3247 31.8533 12.7047 32.1 11.958 32.1C11.2113 32.1 10.5913 31.8533 10.098 31.36ZM10.668 28.17C10.328 28.5167 10.158 28.96 10.158 29.5C10.158 30.04 10.328 30.4833 10.668 30.83C11.008 31.1767 11.438 31.35 11.958 31.35C12.478 31.35 12.908 31.1767 13.248 30.83C13.588 30.4833 13.758 30.04 13.758 29.5C13.758 28.96 13.588 28.5167 13.248 28.17C12.908 27.8233 12.478 27.65 11.958 27.65C11.438 27.65 11.008 27.8233 10.668 28.17ZM15.0041 27.75V27H19.3041V27.75H17.5541V32H16.7541V27.75H15.0041ZM20.4984 31.36C20.0051 30.8667 19.7584 30.2467 19.7584 29.5C19.7584 28.7533 20.0051 28.1333 20.4984 27.64C20.9917 27.1467 21.6117 26.9 22.3584 26.9C23.1051 26.9 23.7251 27.1467 24.2184 27.64C24.7117 28.1333 24.9584 28.7533 24.9584 29.5C24.9584 30.2467 24.7117 30.8667 24.2184 31.36C23.7251 31.8533 23.1051 32.1 22.3584 32.1C21.6117 32.1 20.9917 31.8533 20.4984 31.36ZM21.0684 28.17C20.7284 28.5167 20.5584 28.96 20.5584 29.5C20.5584 30.04 20.7284 30.4833 21.0684 30.83C21.4084 31.1767 21.8384 31.35 22.3584 31.35C22.8784 31.35 23.3084 31.1767 23.6484 30.83C23.9884 30.4833 24.1584 30.04 24.1584 29.5C24.1584 28.96 23.9884 28.5167 23.6484 28.17C23.3084 27.8233 22.8784 27.65 22.3584 27.65C21.8384 27.65 21.4084 27.8233 21.0684 28.17ZM26.4745 31.36C25.9945 30.8667 25.7545 30.2467 25.7545 29.5C25.7545 28.7533 25.9945 28.1333 26.4745 27.64C26.9545 27.1467 27.5478 26.9 28.2545 26.9C29.0745 26.9 29.7245 27.1933 30.2045 27.78C30.4112 28.04 30.5612 28.33 30.6545 28.65H29.8545C29.7812 28.47 29.6712 28.3033 29.5245 28.15C29.2045 27.8167 28.7812 27.65 28.2545 27.65C27.7678 27.65 27.3612 27.8233 27.0345 28.17C26.7145 28.5167 26.5545 28.96 26.5545 29.5C26.5545 30.04 26.7212 30.4833 27.0545 30.83C27.3878 31.1767 27.7878 31.35 28.2545 31.35C28.8012 31.35 29.2378 31.1667 29.5645 30.8C29.7112 30.6467 29.8245 30.4633 29.9045 30.25H30.7045C30.6178 30.59 30.4645 30.9 30.2445 31.18C29.7378 31.7933 29.0745 32.1 28.2545 32.1C27.5478 32.1 26.9545 31.8533 26.4745 31.36ZM31.0588 27.75V27H35.3588V27.75H33.6088V32H32.8088V27.75H31.0588ZM35.6131 27H36.4631L37.5631 31.25H38.3131L39.6131 27H40.4631L38.3631 33.9H37.5131L38.1131 32H36.9631L35.6131 27ZM40.3166 33.15V31.25H40.8666L42.0166 27H44.1166L45.2666 31.25H45.8166V33.15H45.0166V32H41.1166V33.15H40.3166ZM41.6666 31.25H44.4666L43.5166 27.75H42.6166L41.6666 31.25ZM46.5623 32V27H47.3623V30.75L47.3523 30.85H47.3723L50.0623 27H50.9623V32H50.1623V28.25L50.1723 28.15H50.1523L47.4623 32H46.5623ZM52.1631 32L53.1631 30.2C52.9964 30.1267 52.8298 30.02 52.6631 29.88C52.3298 29.5733 52.1631 29.18 52.1631 28.7C52.1631 28.2133 52.3398 27.81 52.6931 27.49C53.0464 27.1633 53.5164 27 54.1031 27H56.3631V32H55.5631V30.4H53.9631L53.0831 32H52.1631ZM53.2531 28.01C53.0598 28.1833 52.9631 28.4133 52.9631 28.7C52.9631 28.9867 53.0598 29.2167 53.2531 29.39C53.4531 29.5633 53.7398 29.65 54.1131 29.65H55.5631V27.75H54.1131C53.7398 27.75 53.4531 27.8367 53.2531 28.01ZM60.6662 32V25H61.5662V28.05H65.3162V25H66.2162V32H65.3162V28.9H61.5662V32H60.6662ZM67.7246 25.89C67.618 25.7833 67.5646 25.6533 67.5646 25.5C67.5646 25.3467 67.618 25.2167 67.7246 25.11C67.8313 25.0033 67.9613 24.95 68.1146 24.95C68.268 24.95 68.398 25.0033 68.5046 25.11C68.6113 25.2167 68.6646 25.3467 68.6646 25.5C68.6646 25.6533 68.6113 25.7833 68.5046 25.89C68.398 25.9967 68.268 26.05 68.1146 26.05C67.9613 26.05 67.8313 25.9967 67.7246 25.89ZM67.7146 32V27H68.5146V32H67.7146ZM70.3119 31.36C69.8452 30.86 69.6119 30.24 69.6119 29.5C69.6119 28.76 69.8452 28.1433 70.3119 27.65C70.7786 27.15 71.3452 26.9 72.0119 26.9C72.4319 26.9 72.7886 26.98 73.0819 27.14C73.3752 27.3 73.5852 27.47 73.7119 27.65L73.8019 27.8H73.8119V27H74.6119V33.9H70.3119V33.15H73.8119V31.2H73.8019L73.7119 31.34C73.5919 31.52 73.3852 31.6933 73.0919 31.86C72.7986 32.02 72.4386 32.1 72.0119 32.1C71.3452 32.1 70.7786 31.8533 70.3119 31.36ZM70.8919 28.17C70.5719 28.5167 70.4119 28.96 70.4119 29.5C70.4119 30.04 70.5719 30.4833 70.8919 30.83C71.2186 31.1767 71.6252 31.35 72.1119 31.35C72.5986 31.35 73.0019 31.1767 73.3219 30.83C73.6486 30.4833 73.8119 30.04 73.8119 29.5C73.8119 28.96 73.6486 28.5167 73.3219 28.17C73.0019 27.8233 72.5986 27.65 72.1119 27.65C71.6252 27.65 71.2186 27.8233 70.8919 28.17ZM76.0154 32V25H76.8154V27.75H76.8254C76.9254 27.59 77.0554 27.45 77.2154 27.33C77.5821 27.0433 78.0154 26.9 78.5154 26.9C79.1221 26.9 79.6054 27.0933 79.9654 27.48C80.3321 27.86 80.5154 28.3833 80.5154 29.05V32H79.7154V29.1C79.7154 28.62 79.5954 28.26 79.3554 28.02C79.1154 27.7733 78.7854 27.65 78.3654 27.65C77.9054 27.65 77.5321 27.8033 77.2454 28.11C76.9588 28.41 76.8154 28.8067 76.8154 29.3V32H76.0154ZM84.6189 33.9V27H85.4189V27.8H85.4289L85.5289 27.65C85.6423 27.4767 85.8456 27.31 86.1389 27.15C86.4323 26.9833 86.7923 26.9 87.2189 26.9C87.8856 26.9 88.4523 27.15 88.9189 27.65C89.3856 28.1433 89.6189 28.76 89.6189 29.5C89.6189 30.24 89.3856 30.86 88.9189 31.36C88.4523 31.8533 87.8856 32.1 87.2189 32.1C86.7923 32.1 86.4289 32.02 86.1289 31.86C85.8356 31.6933 85.6356 31.52 85.5289 31.34L85.4289 31.2H85.4189V33.9H84.6189ZM85.8989 28.17C85.5789 28.5167 85.4189 28.96 85.4189 29.5C85.4189 30.04 85.5789 30.4833 85.8989 30.83C86.2256 31.1767 86.6323 31.35 87.1189 31.35C87.6056 31.35 88.0089 31.1767 88.3289 30.83C88.6556 30.4833 88.8189 30.04 88.8189 29.5C88.8189 28.96 88.6556 28.5167 88.3289 28.17C88.0089 27.8233 87.6056 27.65 87.1189 27.65C86.6323 27.65 86.2256 27.8233 85.8989 28.17ZM91.1225 31.36C90.6558 30.86 90.4225 30.24 90.4225 29.5C90.4225 28.76 90.6558 28.1433 91.1225 27.65C91.5891 27.15 92.1558 26.9 92.8225 26.9C93.2425 26.9 93.5958 26.98 93.8825 27.14C94.1758 27.3 94.3891 27.4733 94.5225 27.66L94.6125 27.81H94.6225V27H95.4225V32H94.6225V31.2H94.6125L94.5225 31.34C94.4025 31.52 94.1958 31.6933 93.9025 31.86C93.6091 32.02 93.2491 32.1 92.8225 32.1C92.1558 32.1 91.5891 31.8533 91.1225 31.36ZM91.7025 28.17C91.3825 28.5167 91.2225 28.96 91.2225 29.5C91.2225 30.04 91.3825 30.4833 91.7025 30.83C92.0291 31.1767 92.4358 31.35 92.9225 31.35C93.4091 31.35 93.8125 31.1767 94.1325 30.83C94.4591 30.4833 94.6225 30.04 94.6225 29.5C94.6225 28.96 94.4591 28.5167 94.1325 28.17C93.8125 27.8233 93.4091 27.65 92.9225 27.65C92.4358 27.65 92.0291 27.8233 91.7025 28.17ZM96.476 30.45H97.326C97.3993 30.63 97.496 30.78 97.616 30.9C97.916 31.2 98.3026 31.35 98.776 31.35C99.2026 31.35 99.516 31.28 99.716 31.14C99.9226 31 100.026 30.82 100.026 30.6C100.026 30.48 99.9826 30.3767 99.896 30.29C99.816 30.2033 99.6826 30.1267 99.496 30.06C99.3093 29.9933 99.1426 29.9433 98.996 29.91C98.856 29.87 98.6493 29.8233 98.376 29.77C97.276 29.5433 96.726 29.0533 96.726 28.3C96.726 27.9067 96.8926 27.5767 97.226 27.31C97.5593 27.0367 98.026 26.9 98.626 26.9C99.3726 26.9 99.9626 27.15 100.396 27.65C100.569 27.8767 100.696 28.1267 100.776 28.4H99.926C99.866 28.2667 99.7793 28.1433 99.666 28.03C99.4126 27.7767 99.066 27.65 98.626 27.65C98.2726 27.65 97.9993 27.7167 97.806 27.85C97.6193 27.9833 97.526 28.1333 97.526 28.3C97.526 28.42 97.566 28.5233 97.646 28.61C97.7326 28.6967 97.8693 28.7733 98.056 28.84C98.2426 28.9067 98.406 28.96 98.546 29C98.6926 29.0333 98.9026 29.0767 99.176 29.13C100.276 29.3567 100.826 29.8467 100.826 30.6C100.826 31.0267 100.646 31.3833 100.286 31.67C99.926 31.9567 99.4226 32.1 98.776 32.1C97.9626 32.1 97.336 31.8267 96.896 31.28C96.7093 31.04 96.5693 30.7633 96.476 30.45ZM101.574 30.45H102.424C102.497 30.63 102.594 30.78 102.714 30.9C103.014 31.2 103.4 31.35 103.874 31.35C104.3 31.35 104.614 31.28 104.814 31.14C105.02 31 105.124 30.82 105.124 30.6C105.124 30.48 105.08 30.3767 104.994 30.29C104.914 30.2033 104.78 30.1267 104.594 30.06C104.407 29.9933 104.24 29.9433 104.094 29.91C103.954 29.87 103.747 29.8233 103.474 29.77C102.374 29.5433 101.824 29.0533 101.824 28.3C101.824 27.9067 101.99 27.5767 102.324 27.31C102.657 27.0367 103.124 26.9 103.724 26.9C104.47 26.9 105.06 27.15 105.494 27.65C105.667 27.8767 105.794 28.1267 105.874 28.4H105.024C104.964 28.2667 104.877 28.1433 104.764 28.03C104.51 27.7767 104.164 27.65 103.724 27.65C103.37 27.65 103.097 27.7167 102.904 27.85C102.717 27.9833 102.624 28.1333 102.624 28.3C102.624 28.42 102.664 28.5233 102.744 28.61C102.83 28.6967 102.967 28.7733 103.154 28.84C103.34 28.9067 103.504 28.96 103.644 29C103.79 29.0333 104 29.0767 104.274 29.13C105.374 29.3567 105.924 29.8467 105.924 30.6C105.924 31.0267 105.744 31.3833 105.384 31.67C105.024 31.9567 104.52 32.1 103.874 32.1C103.06 32.1 102.434 31.8267 101.994 31.28C101.807 31.04 101.667 30.7633 101.574 30.45ZM107.431 29.25C106.925 28.7433 106.671 28.1267 106.671 27.4C106.671 26.6733 106.925 26.06 107.431 25.56C107.945 25.0533 108.575 24.8 109.321 24.8C110.068 24.8 110.695 25.0533 111.201 25.56C111.715 26.06 111.971 26.6733 111.971 27.4C111.971 28.1267 111.715 28.7433 111.201 29.25C110.695 29.75 110.068 30 109.321 30C108.575 30 107.945 29.75 107.431 29.25ZM107.891 25.97C107.511 26.35 107.321 26.8267 107.321 27.4C107.321 27.9733 107.511 28.45 107.891 28.83C108.271 29.21 108.748 29.4 109.321 29.4C109.895 29.4 110.371 29.21 110.751 28.83C111.131 28.45 111.321 27.9733 111.321 27.4C111.321 26.8267 111.131 26.35 110.751 25.97C110.371 25.59 109.895 25.4 109.321 25.4C108.748 25.4 108.271 25.59 107.891 25.97ZM108.321 28.55V26.1H109.471C110.171 26.1 110.521 26.4 110.521 27C110.521 27.22 110.438 27.4133 110.271 27.58C110.198 27.6533 110.115 27.71 110.021 27.75L110.571 28.55H109.871L109.371 27.85H108.971V28.55H108.321ZM108.971 27.3H109.471C109.745 27.3 109.881 27.2 109.881 27C109.881 26.8 109.745 26.7 109.471 26.7H108.971V27.3ZM115.42 32V31.15L117.72 29.45C118.353 28.9767 118.803 28.57 119.07 28.23C119.337 27.89 119.47 27.4967 119.47 27.05C119.47 26.6433 119.33 26.31 119.05 26.05C118.777 25.7833 118.417 25.65 117.97 25.65C117.397 25.65 116.97 25.8833 116.69 26.35C116.557 26.5633 116.467 26.7967 116.42 27.05H115.47C115.53 26.6367 115.66 26.2633 115.86 25.93C116.333 25.1767 117.037 24.8 117.97 24.8C118.663 24.8 119.237 25.0167 119.69 25.45C120.143 25.8833 120.37 26.4167 120.37 27.05C120.37 27.6567 120.197 28.19 119.85 28.65C119.51 29.1033 119 29.57 118.32 30.05L116.87 31.08L116.77 31.14V31.16L116.86 31.15H120.37V32H115.42ZM122.293 31.17C121.68 30.4833 121.373 29.5933 121.373 28.5C121.373 27.4067 121.68 26.5167 122.293 25.83C122.907 25.1433 123.65 24.8 124.523 24.8C125.397 24.8 126.14 25.1433 126.753 25.83C127.367 26.5167 127.673 27.4067 127.673 28.5C127.673 29.5933 127.367 30.4833 126.753 31.17C126.14 31.8567 125.397 32.2 124.523 32.2C123.65 32.2 122.907 31.8567 122.293 31.17ZM122.903 26.41C122.483 26.91 122.273 27.6067 122.273 28.5C122.273 29.3933 122.483 30.0933 122.903 30.6C123.33 31.1 123.87 31.35 124.523 31.35C125.177 31.35 125.713 31.1 126.133 30.6C126.56 30.0933 126.773 29.3933 126.773 28.5C126.773 27.6067 126.56 26.91 126.133 26.41C125.713 25.9033 125.177 25.65 124.523 25.65C123.87 25.65 123.33 25.9033 122.903 26.41ZM128.476 27.05V26.05L129.826 25H130.626V32H129.726V26.1L128.476 27.05ZM131.879 30.1C131.879 29.4867 132.119 29 132.599 28.64C132.819 28.48 133.062 28.3667 133.329 28.3V28.25C133.115 28.1767 132.922 28.07 132.749 27.93C132.369 27.6167 132.179 27.2067 132.179 26.7C132.179 26.1733 132.399 25.7267 132.839 25.36C133.285 24.9867 133.882 24.8 134.629 24.8C135.375 24.8 135.969 24.9867 136.409 25.36C136.855 25.7267 137.079 26.1733 137.079 26.7C137.079 27.2 136.885 27.61 136.499 27.93C136.319 28.0767 136.129 28.1833 135.929 28.25V28.3C136.182 28.3667 136.422 28.48 136.649 28.64C137.135 29.0067 137.379 29.4933 137.379 30.1C137.379 30.6733 137.129 31.1667 136.629 31.58C136.135 31.9933 135.469 32.2 134.629 32.2C133.789 32.2 133.119 31.9933 132.619 31.58C132.125 31.1667 131.879 30.6733 131.879 30.1ZM133.079 26.8C133.079 27.0933 133.219 27.35 133.499 27.57C133.779 27.79 134.155 27.9 134.629 27.9C135.102 27.9 135.479 27.79 135.759 27.57C136.039 27.35 136.179 27.0933 136.179 26.8C136.179 26.46 136.045 26.1833 135.779 25.97C135.519 25.7567 135.135 25.65 134.629 25.65C134.122 25.65 133.735 25.7567 133.469 25.97C133.209 26.1833 133.079 26.46 133.079 26.8ZM133.259 29.13C132.939 29.3767 132.779 29.6833 132.779 30.05C132.779 30.4167 132.939 30.7267 133.259 30.98C133.579 31.2267 134.035 31.35 134.629 31.35C135.222 31.35 135.679 31.2267 135.999 30.98C136.319 30.7267 136.479 30.4167 136.479 30.05C136.479 29.6833 136.319 29.3767 135.999 29.13C135.679 28.8767 135.222 28.75 134.629 28.75C134.035 28.75 133.579 28.8767 133.259 29.13ZM138.425 29.65V28.85H142.025V29.65H138.425ZM142.93 32V31.15L145.23 29.45C145.863 28.9767 146.313 28.57 146.58 28.23C146.847 27.89 146.98 27.4967 146.98 27.05C146.98 26.6433 146.84 26.31 146.56 26.05C146.287 25.7833 145.927 25.65 145.48 25.65C144.907 25.65 144.48 25.8833 144.2 26.35C144.067 26.5633 143.977 26.7967 143.93 27.05H142.98C143.04 26.6367 143.17 26.2633 143.37 25.93C143.843 25.1767 144.547 24.8 145.48 24.8C146.173 24.8 146.747 25.0167 147.2 25.45C147.653 25.8833 147.88 26.4167 147.88 27.05C147.88 27.6567 147.707 28.19 147.36 28.65C147.02 29.1033 146.51 29.57 145.83 30.05L144.38 31.08L144.28 31.14V31.16L144.37 31.15H147.88V32H142.93ZM149.803 31.17C149.19 30.4833 148.883 29.5933 148.883 28.5C148.883 27.4067 149.19 26.5167 149.803 25.83C150.416 25.1433 151.16 24.8 152.033 24.8C152.906 24.8 153.65 25.1433 154.263 25.83C154.876 26.5167 155.183 27.4067 155.183 28.5C155.183 29.5933 154.876 30.4833 154.263 31.17C153.65 31.8567 152.906 32.2 152.033 32.2C151.16 32.2 150.416 31.8567 149.803 31.17ZM150.413 26.41C149.993 26.91 149.783 27.6067 149.783 28.5C149.783 29.3933 149.993 30.0933 150.413 30.6C150.84 31.1 151.38 31.35 152.033 31.35C152.686 31.35 153.223 31.1 153.643 30.6C154.07 30.0933 154.283 29.3933 154.283 28.5C154.283 27.6067 154.07 26.91 153.643 26.41C153.223 25.9033 152.686 25.65 152.033 25.65C151.38 25.65 150.84 25.9033 150.413 26.41ZM156.035 32V31.15L158.335 29.45C158.969 28.9767 159.419 28.57 159.685 28.23C159.952 27.89 160.085 27.4967 160.085 27.05C160.085 26.6433 159.945 26.31 159.665 26.05C159.392 25.7833 159.032 25.65 158.585 25.65C158.012 25.65 157.585 25.8833 157.305 26.35C157.172 26.5633 157.082 26.7967 157.035 27.05H156.085C156.145 26.6367 156.275 26.2633 156.475 25.93C156.949 25.1767 157.652 24.8 158.585 24.8C159.279 24.8 159.852 25.0167 160.305 25.45C160.759 25.8833 160.985 26.4167 160.985 27.05C160.985 27.6567 160.812 28.19 160.465 28.65C160.125 29.1033 159.615 29.57 158.935 30.05L157.485 31.08L157.385 31.14V31.16L157.475 31.15H160.985V32H156.035ZM162.908 31.17C162.295 30.4833 161.988 29.5933 161.988 28.5C161.988 27.4067 162.295 26.5167 162.908 25.83C163.522 25.1433 164.265 24.8 165.138 24.8C166.012 24.8 166.755 25.1433 167.368 25.83C167.982 26.5167 168.288 27.4067 168.288 28.5C168.288 29.5933 167.982 30.4833 167.368 31.17C166.755 31.8567 166.012 32.2 165.138 32.2C164.265 32.2 163.522 31.8567 162.908 31.17ZM163.518 26.41C163.098 26.91 162.888 27.6067 162.888 28.5C162.888 29.3933 163.098 30.0933 163.518 30.6C163.945 31.1 164.485 31.35 165.138 31.35C165.792 31.35 166.328 31.1 166.748 30.6C167.175 30.0933 167.388 29.3933 167.388 28.5C167.388 27.6067 167.175 26.91 166.748 26.41C166.328 25.9033 165.792 25.65 165.138 25.65C164.485 25.65 163.945 25.9033 163.518 26.41Z" fill="#E9E9E9"/>
</svg>
